<svg width="1080" height="1080" viewBox="0 0 1080 1080" fill="none" xmlns="http://www.w3.org/2000/svg">
<g clip-path="url(#clip0_13_15)">
<circle cx="540" cy="540" r="540" fill="#008DDD"/>
<path d="M0 540H540V1080H100C44.7715 1080 0 1035.23 0 980V540Z" fill="#008DDD"/>
<path d="M375.5 397.8H421.1C419.7 385.4 416.3 374.4 410.9 364.8C405.5 355.2 398.6 347.2 390.2 340.8C382 334.2 372.6 329.2 362 325.8C351.6 322.4 340.5 320.7 328.7 320.7C312.3 320.7 297.5 323.6 284.3 329.4C271.3 335.2 260.3 343.2 251.3 353.4C242.3 363.6 235.4 375.6 230.6 389.4C225.8 403 223.4 417.8 223.4 433.8C223.4 449.4 225.8 464 230.6 477.6C235.4 491 242.3 502.7 251.3 512.7C260.3 522.7 271.3 530.6 284.3 536.4C297.5 542 312.3 544.8 328.7 544.8C341.9 544.8 354 542.8 365 538.8C376 534.8 385.6 529 393.8 521.4C402 513.8 408.6 504.6 413.6 493.8C418.6 483 421.7 470.9 422.9 457.5H377.3C375.5 471.9 370.5 483.5 362.3 492.3C354.3 501.1 343.1 505.5 328.7 505.5C318.1 505.5 309.1 503.5 301.7 499.5C294.3 495.3 288.3 489.8 283.7 483C279.1 476.2 275.7 468.6 273.5 460.2C271.5 451.6 270.5 442.8 270.5 433.8C270.5 424.4 271.5 415.3 273.5 406.5C275.7 397.7 279.1 389.9 283.7 383.1C288.3 376.1 294.3 370.6 301.7 366.6C309.1 362.4 318.1 360.3 328.7 360.3C334.5 360.3 340 361.3 345.2 363.3C350.6 365.1 355.4 367.7 359.6 371.1C363.8 374.5 367.3 378.5 370.1 383.1C372.9 387.5 374.7 392.4 375.5 397.8ZM633.863 459V325.8H586.763V459C586.763 475 583.563 486.8 577.163 494.4C570.763 501.8 559.163 505.5 542.363 505.5C532.763 505.5 525.063 504.2 519.263 501.6C513.663 498.8 509.263 495.3 506.063 491.1C502.863 486.7 500.763 481.7 499.763 476.1C498.763 470.5 498.263 464.8 498.263 459V325.8H451.163V459C451.163 488.2 459.063 509.8 474.863 523.8C490.863 537.8 513.363 544.8 542.363 544.8C570.963 544.8 593.363 537.8 609.563 523.8C625.763 509.6 633.863 488 633.863 459ZM718.527 422.7V362.4H770.127C780.927 362.4 789.027 364.8 794.427 369.6C799.827 374.2 802.527 381.7 802.527 392.1C802.527 402.9 799.827 410.7 794.427 415.5C789.027 420.3 780.927 422.7 770.127 422.7H718.527ZM671.427 325.8V540H718.527V456.3H765.627C777.427 456.3 785.927 458.9 791.127 464.1C796.327 469.3 799.727 477.5 801.327 488.7C802.527 497.3 803.427 506.3 804.027 515.7C804.627 525.1 806.227 533.2 808.827 540H855.927C853.727 537 852.027 533.4 850.827 529.2C849.827 524.8 849.027 520.2 848.427 515.4C848.027 510.6 847.727 505.9 847.527 501.3C847.327 496.7 847.127 492.7 846.927 489.3C846.527 483.9 845.727 478.5 844.527 473.1C843.527 467.7 841.827 462.8 839.427 458.4C837.027 453.8 833.927 449.9 830.127 446.7C826.327 443.3 821.527 440.8 815.727 439.2V438.6C827.727 433.8 836.327 426.8 841.527 417.6C846.927 408.4 849.627 397.5 849.627 384.9C849.627 376.7 848.127 369.1 845.127 362.1C842.327 354.9 838.127 348.6 832.527 343.2C827.127 337.8 820.527 333.6 812.727 330.6C805.127 327.4 796.527 325.8 786.927 325.8H671.427ZM232.7 599.8V814H279.8V721.6H366.5V814H413.6V599.8H366.5V682H279.8V599.8H232.7ZM506.063 731.2L533.963 652.6H534.563L561.563 731.2H506.063ZM510.563 599.8L429.563 814H476.963L493.763 766.3H573.863L590.063 814H638.963L558.863 599.8H510.563ZM674.295 639.4V814H721.395V639.4H785.595V599.8H610.095V639.4H674.295Z" fill="white"/>
<circle cx="796" cy="789" r="25" fill="white"/>
<rect x="771" y="789" width="25" height="25" fill="white"/>
</g>
<defs>
<clipPath id="clip0_13_15">
<rect width="1080" height="1080" fill="white"/>
</clipPath>
</defs>
</svg>
